<?xml version="1.0" standalone="no"?>
<!DOCTYPE svg PUBLIC "-//W3C//DTD SVG 20010904//EN"
 "http://www.w3.org/TR/2001/REC-SVG-20010904/DTD/svg10.dtd">
<svg version="1.0" xmlns="http://www.w3.org/2000/svg"
 width="300.000000pt" height="293.000000pt" viewBox="0 0 300.000000 293.000000"
 preserveAspectRatio="xMidYMid meet">
<metadata>
Created by potrace 1.10, written by Peter Selinger 2001-2011
</metadata>
<g transform="translate(0.000000,293.000000) scale(0.100000,-0.100000)"
fill="#000000" stroke="none">
<path d="M1926 2733 c-4 -5 -28 -8 -52 -9 -45 -1 -59 -7 -59 -27 -1 -7 -6 -11
-13 -9 -7 1 -12 -3 -12 -9 0 -5 -5 -7 -12 -3 -7 4 -8 3 -4 -4 4 -6 -2 -20 -13
-31 -11 -11 -17 -22 -14 -25 3 -3 2 -11 -4 -18 -19 -26 0 -168 28 -204 5 -6 6
-14 2 -18 -4 -4 -1 -4 8 -1 10 4 15 -1 16 -13 1 -17 -2 -18 -30 -8 -18 6 -46
20 -62 32 -17 11 -38 24 -48 27 -11 4 -15 12 -11 19 6 10 4 10 -8 0 -13 -10
-18 -10 -29 0 -8 7 -21 13 -29 13 -9 0 -14 8 -13 19 1 12 -2 15 -9 8 -10 -10
-51 -4 -44 7 3 4 -4 8 -15 8 -12 1 -17 -3 -13 -10 3 -7 0 -5 -8 3 -13 16 -41
20 -143 21 -60 2 -130 -7 -146 -17 -5 -3 -18 0 -29 6 -16 8 -20 8 -18 -2 2 -8
-6 -13 -19 -12 -12 0 -20 -3 -18 -6 2 -4 -8 -13 -23 -21 -15 -7 -47 -27 -72
-44 -25 -16 -48 -29 -52 -27 -4 1 -5 -5 -2 -12 6 -16 -32 -60 -45 -52 -4 3 -8
-1 -8 -9 0 -8 4 -12 9 -9 17 11 7 -6 -21 -35 -16 -16 -27 -32 -24 -35 3 -2 -4
-10 -15 -17 -11 -7 -18 -19 -15 -26 3 -8 2 -13 -3 -11 -5 2 -10 0 -12 -4 -9
-26 -59 -106 -79 -127 -13 -15 -29 -38 -36 -53 -6 -16 -16 -28 -20 -28 -5 0
-5 -4 -2 -10 3 -5 -1 -10 -9 -10 -9 0 -16 -6 -16 -14 0 -7 -10 -26 -22 -42
-13 -15 -16 -24 -9 -20 8 5 3 -6 -10 -25 -13 -19 -27 -36 -32 -37 -4 -2 -5 -7
-3 -11 3 -4 -1 -37 -9 -73 -7 -37 -12 -92 -10 -124 5 -65 43 -204 56 -204 5 0
9 -6 9 -14 0 -8 11 -28 25 -44 14 -17 25 -35 25 -41 0 -16 -50 -46 -58 -34
-10 14 -42 25 -86 29 -22 2 -46 6 -53 8 -7 3 -13 2 -13 -2 0 -12 -44 -10 -53
2 -6 7 -7 4 -3 -6 3 -11 -2 -19 -17 -24 -12 -4 -29 -15 -38 -25 -9 -10 -18
-16 -21 -13 -3 3 -9 -7 -12 -21 -4 -16 -11 -23 -18 -19 -8 5 -9 2 -5 -9 3 -10
2 -17 -3 -17 -6 0 -10 -5 -10 -11 0 -5 4 -7 10 -4 6 4 7 -2 1 -18 -11 -28 -5
-104 10 -144 12 -33 64 -83 92 -89 11 -2 35 -8 53 -14 18 -6 39 -10 46 -9 32
4 49 -1 42 -13 -6 -10 -4 -10 7 0 7 6 23 12 35 12 30 0 80 44 104 91 11 21 23
69 26 108 7 77 39 131 76 131 33 0 77 -37 71 -60 -3 -11 -9 -20 -14 -20 -5 0
-8 -3 -7 -8 3 -15 -15 -42 -25 -35 -5 3 -7 1 -4 -4 4 -6 -2 -21 -13 -33 -25
-28 -26 -37 -2 -19 16 13 16 12 3 -4 -8 -10 -23 -16 -32 -14 -10 3 -18 2 -17
-2 1 -3 -9 -26 -22 -51 -20 -37 -24 -60 -25 -132 0 -105 14 -129 97 -171 44
-22 71 -29 124 -29 41 -1 60 -4 48 -9 -13 -5 -14 -8 -4 -8 24 -1 75 34 103 71
24 33 43 81 53 134 3 14 6 29 7 33 3 12 -37 110 -43 106 -4 -2 -13 7 -20 20
-7 13 -26 27 -41 30 -16 4 -29 11 -29 16 0 5 -7 9 -16 9 -21 0 -15 49 8 63 13
9 45 -3 150 -55 117 -57 223 -106 337 -154 64 -28 310 -48 342 -28 5 3 17 7
27 9 69 13 180 113 257 230 28 44 88 136 133 205 92 142 140 239 147 296 3 21
8 48 12 59 10 33 9 139 -2 147 -5 4 -1 8 10 8 14 0 16 3 8 8 -7 4 -21 34 -32
65 -11 31 -29 66 -40 79 -17 18 -29 58 -18 58 1 0 28 -13 59 -29 60 -31 104
-34 163 -11 58 22 88 65 106 148 17 82 17 106 0 126 -13 16 -13 18 -1 11 8 -4
4 3 -9 18 -12 14 -20 30 -17 36 4 7 1 9 -8 5 -9 -3 -17 2 -21 15 -3 11 -9 20
-13 20 -16 -2 -51 14 -47 21 3 5 -4 6 -15 3 -11 -3 -20 0 -20 6 0 7 -9 9 -26
5 -22 -6 -25 -4 -19 7 7 11 6 12 -6 2 -9 -7 -25 -11 -37 -8 -12 2 -22 0 -22
-4 0 -5 -14 -11 -30 -15 -27 -5 -85 -46 -66 -46 4 0 0 -7 -8 -16 -9 -8 -14
-20 -10 -25 3 -5 0 -8 -7 -7 -12 3 -14 -44 -6 -147 2 -24 -2 -30 -18 -30 -11
0 -20 7 -20 15 0 8 -8 18 -18 22 -11 5 -15 13 -11 19 4 7 3 9 -3 6 -6 -4 -21
2 -33 13 -12 11 -26 17 -30 15 -4 -3 -10 2 -14 10 -3 8 -15 15 -26 15 -12 0
-19 4 -16 9 3 4 -7 8 -22 9 -51 0 -50 -1 -37 40 7 20 29 54 50 74 53 53 93
143 89 199 -5 62 -6 69 -14 64 -4 -2 -13 11 -20 30 -7 19 -17 32 -21 29 -4 -2
-13 5 -19 17 -7 11 -14 18 -17 15 -4 -3 -14 1 -24 10 -10 9 -32 17 -49 19 -17
1 -33 5 -37 9 -8 8 -18 8 -27 -1z m89 -52 c77 -35 129 -121 110 -183 -56 -183
-355 -139 -355 53 0 113 131 182 245 130z m-515 -241 c68 -23 347 -152 390
-180 14 -9 41 -22 60 -30 81 -30 225 -108 265 -143 50 -43 115 -141 141 -213
27 -75 25 -241 -4 -316 -21 -51 -187 -321 -300 -485 -80 -117 -197 -181 -345
-191 -144 -9 -208 13 -611 213 -315 157 -337 171 -383 232 -114 156 -144 291
-97 435 18 56 311 511 374 580 104 116 329 159 510 98z m505 -91 c7 -10 -39
-89 -51 -89 -3 0 -14 5 -25 11 -19 10 -19 12 11 50 32 39 53 48 65 28z m534
-18 c84 -43 123 -146 86 -225 -33 -70 -140 -106 -222 -75 -63 23 -123 105
-123 166 1 45 36 111 72 133 44 27 135 27 187 1z m-1781 -1084 c2 -11 -12 -27
-42 -44 -37 -23 -44 -32 -38 -48 4 -11 7 -47 7 -80 0 -73 -27 -118 -89 -146
-83 -38 -180 -12 -239 63 -60 75 -38 196 43 243 51 29 152 28 202 -3 l37 -23
48 30 c51 33 66 34 71 8z m187 -121 c18 -13 17 -16 -19 -60 -26 -31 -46 -46
-62 -46 -34 0 -30 24 13 76 42 49 42 49 68 30z m50 -145 c139 -63 139 -249 0
-312 -56 -26 -102 -23 -164 7 -83 42 -119 117 -99 208 11 54 51 101 91 109 56
11 134 6 172 -12z"/>
<path d="M1910 2653 c-90 -25 -117 -123 -52 -186 38 -36 86 -49 132 -37 91 25
110 121 37 189 -26 23 -88 41 -117 34z m60 -48 c14 -17 5 -35 -17 -35 -8 0
-26 -9 -40 -20 -20 -15 -29 -17 -39 -9 -20 16 -17 26 11 54 27 28 66 33 85 10z
m63 -87 c-12 -48 -76 -73 -124 -48 -30 17 -22 34 26 54 25 10 50 28 57 39 l11
21 17 -22 c11 -13 16 -31 13 -44z"/>
<path d="M1260 2380 c-65 -12 -140 -47 -178 -83 -35 -33 -305 -442 -351 -530
-23 -46 -26 -63 -26 -152 0 -93 3 -104 32 -160 60 -115 94 -136 588 -368 220
-103 244 -111 345 -111 76 -1 93 3 155 32 103 49 87 29 320 387 82 124 122
206 130 259 8 54 -18 234 -41 278 -31 60 -100 114 -241 185 -159 82 -469 224
-534 246 -59 20 -144 27 -199 17z m212 -67 c38 -14 65 -30 61 -36 -3 -6 -1 -7
4 -4 12 8 73 -11 73 -22 0 -4 18 -13 40 -20 22 -6 40 -16 40 -22 0 -10 46 -33
69 -34 8 0 16 -10 17 -22 5 -29 -13 -76 -26 -68 -6 3 -7 -1 -4 -9 3 -9 2 -16
-3 -16 -6 0 -14 -9 -19 -20 -9 -20 -10 -20 -39 8 -17 16 -59 59 -94 95 -35 37
-67 67 -72 67 -4 0 -11 9 -14 20 -4 11 -11 18 -16 15 -5 -4 -9 -2 -9 3 0 5
-10 13 -22 17 -13 4 -27 9 -33 10 -24 9 -64 16 -123 24 -52 6 -65 5 -73 -8 -7
-11 -12 -12 -15 -4 -4 8 -13 9 -30 3 -35 -14 -31 6 6 25 79 41 174 40 282 -2z
m-26 -81 c98 -50 153 -125 161 -219 6 -73 -21 -151 -80 -227 -23 -30 -79 -102
-125 -161 -98 -125 -112 -154 -112 -234 0 -106 73 -241 160 -296 55 -35 60
-31 18 13 -20 20 -43 52 -52 69 -9 18 -21 32 -28 30 -6 -1 -22 21 -37 48 -34
64 -35 150 -4 211 12 22 71 103 132 180 148 185 166 223 166 336 -1 49 2 85 6
80 4 -4 20 -31 35 -61 29 -60 40 -121 30 -174 -8 -43 -120 -211 -193 -290 -73
-80 -204 -349 -137 -282 9 8 20 15 26 15 6 0 9 3 5 6 -7 7 27 79 41 88 14 9
91 -51 202 -157 57 -53 113 -100 126 -103 23 -6 84 22 84 39 0 4 -7 21 -15 36
-8 16 -35 98 -61 182 -25 85 -53 166 -60 182 -13 24 -13 27 1 27 9 0 29 -7 45
-15 16 -8 33 -15 37 -14 38 6 91 -39 125 -105 22 -43 51 -155 50 -194 0 -25
-81 -151 -98 -152 -6 0 -19 -9 -29 -20 -10 -11 -43 -29 -74 -41 -83 -31 -194
-24 -281 18 -36 17 -87 39 -115 48 -118 42 -182 116 -211 243 -29 131 -10 171
202 437 93 117 120 192 93 262 -25 67 -87 105 -166 104 -65 0 -108 -22 -140
-71 -28 -40 -31 -116 -7 -166 22 -46 90 -86 148 -86 l45 -1 -42 -53 c-45 -59
-50 -59 -133 -24 -101 43 -164 139 -164 249 1 115 49 191 155 243 55 27 67 29
145 25 62 -2 96 -9 126 -25z m-422 -109 c-4 -16 -9 -32 -13 -38 -6 -11 -6 -10
-18 -85 -12 -73 4 -142 46 -203 17 -26 34 -47 37 -47 3 0 2 4 -1 10 -3 5 21
-6 53 -26 33 -19 72 -37 88 -40 39 -7 48 -18 29 -34 -8 -7 -15 -20 -15 -30 0
-9 -9 -25 -20 -35 -11 -10 -18 -20 -16 -23 3 -2 -6 -22 -20 -43 -13 -21 -24
-45 -24 -52 0 -17 -30 -51 -50 -55 -8 -2 -25 -17 -39 -33 -13 -16 -30 -29 -38
-29 -8 0 -12 -4 -9 -8 2 -4 -4 -19 -14 -32 -16 -21 -22 -23 -38 -13 -13 8 -23
8 -29 2 -7 -7 -12 -5 -16 5 -5 11 4 20 29 31 58 24 88 51 113 102 12 26 27 56
33 66 5 10 6 39 2 65 -5 26 -7 51 -6 55 1 5 -2 6 -8 2 -5 -3 -10 -1 -10 4 0 6
6 11 13 12 9 0 9 2 -1 6 -8 3 -26 17 -42 32 -16 14 -36 32 -44 38 -18 15 -81
29 -116 26 -52 -4 -69 -7 -66 -13 2 -3 -12 -15 -30 -27 -32 -21 -34 -21 -34
-3 0 10 7 25 15 34 8 8 15 18 15 21 0 5 97 156 190 295 9 14 24 40 34 58 20
39 29 41 20 5z m850 14 c16 -12 17 -17 6 -38 -11 -20 -54 -80 -106 -148 -10
-12 -14 -10 -28 16 l-16 31 56 76 c30 42 59 76 63 76 4 0 15 -6 25 -13z m-501
-41 c41 -17 67 -46 63 -71 -2 -11 2 -28 8 -37 29 -47 -49 -148 -113 -148 -39
0 -114 44 -135 79 -16 28 -17 36 -5 76 7 25 17 45 22 45 4 0 6 4 3 9 -10 15
34 45 77 52 23 3 43 7 45 8 1 0 17 -5 35 -13z m621 -40 c-3 -7 -16 -19 -30
-26 -13 -7 -22 -16 -19 -18 3 -3 -8 -13 -24 -23 -48 -29 -79 -158 -55 -227 7
-23 -6 -33 -28 -21 -11 6 -32 12 -46 14 -14 1 -31 10 -37 19 -20 27 5 100 54
156 54 62 101 127 101 139 0 6 8 14 17 20 22 12 75 -13 67 -33z m126 -71 c121
-62 131 -229 18 -284 -57 -27 -98 -27 -156 3 -80 42 -115 118 -92 201 13 47
27 64 75 90 34 18 110 13 155 -10z m131 -293 c2 -42 -5 -65 -37 -129 -23 -46
-44 -77 -52 -75 -8 1 -11 -2 -8 -7 7 -11 -14 -61 -26 -61 -4 0 -8 -9 -8 -19 0
-47 -19 -25 -34 39 -8 38 -24 87 -36 109 -31 61 -28 68 35 73 62 5 98 31 121
86 8 17 19 32 25 32 5 0 7 6 3 13 -5 8 -4 9 4 2 6 -6 12 -34 13 -63z m-428 28
c71 -27 146 -79 178 -123 37 -52 69 -138 69 -189 0 -38 -43 -138 -60 -138 -4
0 -10 32 -13 71 -13 159 -116 266 -284 294 -24 4 -43 10 -43 13 1 4 14 23 30
42 17 19 30 40 30 48 0 15 10 13 93 -18z m-835 -26 c45 -27 81 -85 82 -133 0
-40 -42 -101 -88 -128 -35 -21 -52 -25 -93 -21 -59 6 -96 30 -126 84 -82 143
78 284 225 198z m725 -208 c20 -52 40 -112 44 -133 11 -52 5 -123 -10 -123
-23 0 -162 89 -216 139 l-54 49 32 41 c18 23 36 41 40 41 3 0 5 -18 3 -40 -4
-37 -2 -40 21 -40 20 0 30 -11 53 -56 44 -86 124 -137 124 -79 0 15 -20 49
-55 90 -52 60 -68 95 -45 95 23 0 7 20 -29 36 l-40 17 22 28 c14 17 32 28 48
28 24 1 29 -7 62 -93z m-584 -126 c0 -25 -67 -110 -86 -110 -5 0 -18 6 -28 14
-18 13 -16 17 39 81 61 68 76 72 75 15z m35 -72 c21 -80 23 -98 9 -98 -16 0
-73 28 -73 35 0 11 45 75 53 75 4 0 9 -6 11 -12z m651 -50 c8 -28 15 -52 15
-53 0 -1 -10 0 -23 2 -14 3 -29 -2 -36 -11 -19 -22 -37 -20 -55 6 -21 30 -20
37 4 31 26 -7 50 13 50 42 0 22 8 35 21 35 5 0 15 -23 24 -52z m2 -88 c14 -21
3 -33 -21 -24 -16 6 -21 25 -9 37 10 11 17 8 30 -13z"/>
<path d="M1821 1497 c-39 -19 -38 -37 3 -37 19 0 38 -6 43 -12 4 -7 8 -54 8
-105 1 -97 14 -141 17 -57 5 130 2 167 -15 179 -9 7 -17 20 -17 29 0 19 -7 20
-39 3z"/>
<path d="M1475 1319 c4 -5 -3 -19 -15 -29 -16 -14 -21 -27 -18 -44 3 -14 1
-23 -3 -20 -5 3 -9 1 -9 -4 0 -10 134 -62 172 -67 37 -4 58 -16 51 -28 -3 -6
-1 -7 6 -3 6 4 23 1 36 -8 37 -24 53 -19 25 8 -22 20 -62 40 -233 111 l-38 16
25 30 c25 29 27 49 5 49 -6 0 -7 -5 -4 -11z"/>
<path d="M1974 1945 c-30 -20 -47 -68 -40 -109 10 -51 74 -106 126 -106 55 0
99 40 106 95 6 54 -12 85 -66 113 -51 25 -97 28 -126 7z m76 -28 c0 -7 -13
-26 -30 -42 -24 -23 -32 -26 -45 -15 -21 18 -19 36 7 54 27 19 68 21 68 3z
m74 -39 c23 -33 20 -66 -9 -92 -37 -34 -60 -37 -97 -13 -42 29 -44 40 -8 55
16 8 39 27 51 43 24 35 42 37 63 7z"/>
<path d="M863 1673 c-33 -6 -73 -59 -73 -96 0 -68 75 -138 133 -123 13 3 39
19 56 35 29 27 32 35 29 77 -3 40 -8 51 -38 74 -37 29 -71 39 -107 33z m31
-29 c22 -8 20 -26 -5 -58 -14 -17 -29 -26 -43 -24 -30 4 -31 34 -2 63 28 28
28 28 50 19z m74 -61 c23 -43 -35 -101 -81 -84 l-27 10 43 45 c47 51 53 53 65
29z"/>
<path d="M2364 2276 c-29 -29 -34 -41 -34 -81 0 -42 5 -52 39 -86 34 -34 44
-39 85 -39 80 0 136 47 136 113 0 35 -40 89 -80 109 -57 29 -106 24 -146 -16z
m95 -10 c9 -11 3 -20 -29 -46 -61 -48 -100 -19 -45 35 27 28 57 32 74 11z m64
-31 c42 -40 36 -95 -14 -120 -39 -21 -72 -19 -103 6 -32 25 -33 36 -3 45 31
10 102 67 88 72 -12 4 -15 22 -3 22 4 0 20 -11 35 -25z"/>
<path d="M429 1187 c-21 -14 -39 -38 -48 -63 -12 -36 -12 -44 4 -77 47 -100
181 -113 236 -23 68 111 -81 238 -192 163z m102 -26 l23 -18 -42 -27 c-54 -34
-92 -35 -92 -3 0 32 37 63 76 66 7 1 22 -7 35 -18z m67 -59 c17 -48 -17 -91
-78 -99 -32 -5 -43 -1 -64 20 -32 32 -33 46 -2 40 24 -5 106 41 106 58 0 21
29 6 38 -19z"/>
<path d="M856 950 c-64 -20 -95 -83 -74 -153 24 -79 128 -120 196 -78 38 25
72 76 72 111 0 41 -37 89 -83 110 -46 21 -66 23 -111 10z m84 -45 c10 -12 8
-16 -11 -25 -13 -5 -36 -19 -51 -31 -48 -39 -82 7 -38 51 24 24 82 27 100 5z
m60 -44 c17 -32 12 -59 -18 -93 -34 -37 -79 -42 -119 -12 -35 27 -40 44 -12
44 22 0 87 42 102 67 12 19 35 16 47 -6z"/>
<path d="M2650 1641 c-19 -5 -3 -15 90 -51 63 -24 146 -59 184 -77 37 -19 70
-32 73 -29 8 7 -35 42 -69 57 -16 6 -28 16 -28 21 0 5 -4 7 -9 3 -5 -3 -17 2
-26 11 -9 9 -19 14 -22 10 -3 -3 -11 -1 -18 4 -6 5 -22 12 -36 14 -13 3 -26 5
-29 6 -3 2 -8 2 -12 1 -5 0 -8 4 -8 9 0 6 -6 10 -12 8 -7 -1 -22 3 -33 8 -11
6 -31 8 -45 5z"/>
<path d="M2615 1621 c7 -13 152 -114 193 -135 18 -9 41 -24 51 -32 9 -8 45
-31 80 -50 l62 -34 -3 37 c-3 34 -8 40 -60 69 -31 18 -59 30 -61 27 -3 -2 -13
0 -24 6 -59 34 -243 120 -238 112z m241 -138 c-5 -6 -96 44 -96 53 0 2 23 -7
51 -22 28 -14 48 -28 45 -31z"/>
<path d="M2771 1302 c-6 -2 -9 -8 -5 -13 3 -5 -6 -13 -20 -19 -14 -5 -26 -12
-26 -15 0 -4 6 -3 13 1 6 4 4 -1 -5 -11 -12 -13 -20 -15 -30 -8 -9 8 -16 7
-25 -2 -6 -7 -9 -16 -6 -19 4 -3 1 -6 -6 -6 -7 0 -10 -4 -7 -9 6 -10 -30 -22
-39 -13 -11 11 -35 10 -35 -1 0 -13 -70 -63 -83 -59 -5 1 -6 -2 -3 -7 4 -5 1
-11 -5 -13 -8 -3 -6 -9 5 -20 9 -9 16 -23 16 -30 0 -7 9 -21 19 -30 21 -18 26
-15 88 37 7 5 20 16 28 24 9 7 14 19 11 27 -3 8 -1 14 5 14 5 0 12 -7 16 -15
5 -14 8 -14 32 1 44 30 53 41 33 46 -24 6 -42 -1 -42 -17 0 -8 -4 -17 -10 -20
-6 -4 -10 14 -10 46 0 44 2 50 14 39 8 -6 12 -19 9 -28 -3 -11 -2 -13 4 -5 9
12 63 6 63 -8 0 -16 20 -9 50 17 38 34 46 60 26 80 -9 9 -14 20 -11 25 4 5 -2
6 -11 2 -11 -4 -15 -3 -10 5 6 10 -17 13 -43 4z m52 -41 c23 -39 22 -41 -15
-34 -27 5 -31 3 -20 -8 13 -14 16 -39 5 -39 -9 1 -44 72 -39 77 2 2 15 -1 30
-6 30 -12 32 -9 10 25 -13 19 -14 23 -2 19 8 -3 22 -19 31 -34z m-216 -83 c-2
-7 2 -28 9 -47 18 -44 17 -62 -2 -31 l-15 25 6 -27 c4 -22 2 -26 -10 -22 -8 4
-15 1 -15 -6 0 -9 -8 -6 -21 6 -22 19 -22 19 -10 -3 15 -29 14 -44 -2 -37 -7
2 -13 12 -13 22 0 9 -4 28 -8 40 -7 22 -6 23 12 13 32 -17 42 -13 42 14 0 14
6 34 12 45 14 23 22 26 15 8z"/>
<path d="M2423 1077 c-26 -26 -47 -43 -67 -54 -17 -10 -18 -12 -4 -13 9 0 20
-4 23 -10 3 -5 0 -8 -7 -5 -34 12 -67 13 -65 2 1 -7 -6 -11 -15 -11 -10 1 -16
-2 -13 -6 8 -13 -24 -40 -46 -40 -11 0 -18 -4 -15 -9 3 -5 -6 -12 -21 -16 -16
-3 -31 -11 -34 -17 -4 -5 -18 -11 -32 -11 -14 -1 -23 -5 -21 -9 3 -4 -5 -12
-16 -18 -11 -6 -18 -15 -15 -21 4 -6 -9 -7 -33 -3 -28 4 -47 2 -62 -9 -17 -12
-18 -15 -5 -20 8 -4 27 -1 40 5 21 10 28 8 40 -8 33 -42 35 -50 14 -73 -27
-29 -41 -27 -62 9 -11 18 -26 30 -38 30 -19 0 -18 -4 12 -41 39 -49 50 -54 81
-38 13 7 26 12 30 11 4 -1 5 5 2 13 -4 8 1 17 9 21 9 3 14 11 11 19 -3 7 2 15
11 19 9 3 13 2 10 -4 -4 -6 9 -10 30 -10 22 0 34 4 30 10 -3 6 3 10 13 10 24
0 35 23 19 39 -6 6 -7 11 -1 11 6 0 15 -5 21 -11 8 -8 17 -5 32 10 12 12 28
21 36 21 8 0 15 4 15 10 0 5 7 6 17 3 10 -4 14 -2 9 5 -3 6 3 13 14 17 11 3
19 9 19 13 -4 24 4 32 31 32 17 0 30 4 30 8 0 4 14 16 30 25 17 10 30 25 30
33 0 9 5 12 12 8 7 -4 8 -3 4 5 -4 6 -12 9 -17 6 -5 -4 -9 0 -9 8 0 8 -7 18
-16 21 -8 3 -13 9 -11 13 5 9 -13 27 -28 30 -6 0 -15 -4 -22 -10z m27 -33 c-6
-14 -10 -27 -10 -28 0 -2 14 -6 31 -10 40 -8 29 -24 -13 -18 -27 4 -31 2 -20
-9 16 -17 15 -26 -4 -33 -11 -4 -15 -2 -11 8 3 7 -4 28 -14 46 -22 36 -17 55
6 24 14 -18 14 -17 15 14 0 21 5 32 15 32 11 0 12 -5 5 -26z m-85 -74 c4 -6
10 -8 15 -5 13 8 -10 -57 -26 -74 -22 -23 -64 1 -64 37 0 15 5 33 12 40 15 15
54 16 63 2z m-97 -72 c19 -19 15 -58 -5 -59 -24 -2 -25 -2 -44 6 -13 5 -15 1
-12 -17 6 -33 -36 -56 -73 -40 -21 10 -25 18 -22 45 3 30 6 32 40 32 30 0 38
4 43 23 4 16 13 22 33 22 15 0 33 -5 40 -12z"/>
<path d="M2310 936 c0 -32 18 -43 37 -23 20 20 10 47 -17 47 -15 0 -20 -7 -20
-24z"/>
<path d="M2200 882 c0 -4 10 -13 21 -20 23 -15 47 -3 35 17 -8 12 -56 15 -56
3z"/>
<path d="M2132 848 c-19 -19 -14 -37 14 -44 37 -9 52 10 29 36 -21 23 -27 24
-43 8z"/>
<path d="M2393 833 c-29 -45 -42 -55 -64 -50 -24 6 -73 -38 -65 -59 3 -7 0
-15 -7 -17 -17 -6 -38 3 -32 13 3 5 1 12 -5 15 -6 4 -9 1 -8 -7 2 -8 -4 -12
-16 -10 -10 2 -15 -1 -12 -7 4 -5 2 -12 -4 -16 -5 -3 -10 -1 -10 5 0 6 -4 9
-9 6 -4 -3 -6 -17 -3 -31 l4 -26 35 27 c35 27 56 26 33 -1 -11 -13 -8 -21 20
-50 19 -19 30 -38 26 -42 -4 -4 -22 10 -40 32 -28 33 -36 38 -49 27 -11 -10
-17 -10 -22 -2 -4 7 -16 10 -26 7 -11 -3 -17 -2 -14 3 3 4 -2 10 -10 14 -8 3
-17 0 -21 -6 -4 -7 -3 -8 4 -4 7 4 12 1 12 -9 0 -8 -6 -18 -13 -21 -9 -3 -13
-20 -12 -50 2 -29 -2 -43 -9 -41 -6 2 -10 11 -8 20 1 8 -2 18 -8 22 -6 4 -7
-1 -3 -12 6 -17 6 -17 -14 0 -19 16 -21 16 -37 -1 -10 -12 -25 -17 -40 -15
-17 4 -29 -3 -44 -25 -12 -16 -19 -32 -15 -36 3 -3 -5 -7 -18 -7 -13 -1 -28
-2 -34 -4 -5 -1 -20 -3 -31 -3 -14 -1 -26 -13 -34 -32 -7 -16 -16 -30 -21 -30
-5 0 -9 -5 -9 -11 0 -5 5 -7 12 -3 7 5 8 3 4 -5 -5 -7 -10 -10 -13 -7 -3 3
-14 -4 -25 -14 -26 -23 -14 -43 20 -36 36 8 55 -6 50 -35 -2 -18 -10 -25 -30
-27 -16 -2 -28 1 -28 7 0 6 9 11 20 11 11 0 20 7 20 15 0 13 -7 15 -33 10 -44
-9 -65 14 -49 50 7 14 18 25 27 25 8 0 15 4 15 9 0 11 -31 7 -56 -7 -10 -5
-18 -22 -20 -37 -3 -31 -15 -46 -21 -27 -3 6 -9 10 -14 6 -5 -3 -9 -1 -9 5 0
7 -8 7 -24 0 -14 -7 -22 -17 -20 -24 3 -7 1 -16 -5 -20 -6 -3 -11 -15 -11 -25
0 -16 -4 -17 -32 -9 -17 5 -34 6 -37 4 -2 -3 0 -5 4 -5 5 0 1 -6 -10 -13 -18
-14 -18 -16 1 -68 18 -55 40 -89 56 -89 5 0 17 13 26 30 11 20 22 28 34 24 10
-3 23 4 32 18 9 13 26 23 39 23 15 0 27 11 40 39 14 29 21 36 30 27 6 -6 17
-11 25 -11 17 0 64 48 58 58 -2 4 12 8 31 9 19 1 41 7 49 14 21 17 45 65 37
73 -4 4 10 4 30 1 48 -8 77 18 66 61 -7 25 -6 27 5 12 18 -24 52 -23 59 1 3
14 11 17 29 14 16 -3 27 0 31 9 3 10 -2 14 -15 14 -27 -1 -65 109 -41 118 8 3
12 2 9 -3 -3 -4 18 -23 46 -41 35 -23 53 -30 56 -22 3 10 7 10 18 1 19 -15 47
7 41 32 -5 20 16 31 49 25 27 -5 85 40 77 59 -3 8 -9 15 -15 15 -5 0 -7 -4 -4
-9 3 -5 -6 -16 -20 -26 -29 -19 -40 -13 -76 38 l-22 30 28 24 c38 33 55 29 22
-6 -31 -33 -18 -55 15 -25 24 21 27 -1 3 -27 -26 -28 1 -31 32 -3 25 24 26 28
11 39 -9 7 -17 16 -17 21 1 5 13 -5 28 -22 37 -42 63 -49 90 -24 22 21 26 32
22 59 -2 18 -72 81 -90 81 -13 0 -13 1 0 10 10 6 11 10 3 10 -7 0 -20 -12 -30
-27z m34 -28 c-24 -17 -22 -38 3 -30 32 10 60 -4 60 -30 0 -26 -33 -51 -52
-39 -7 5 -3 10 11 16 29 10 22 33 -10 34 -43 1 -49 4 -49 21 0 22 30 54 43 46
6 -4 4 -11 -6 -18z m-327 -327 c0 -5 -4 -8 -10 -8 -10 0 -70 83 -70 97 1 10
79 -79 80 -89z m-110 43 c0 -5 -9 -13 -20 -16 -26 -8 -27 -51 -1 -65 27 -14
37 -13 55 6 13 13 16 13 16 1 0 -28 -26 -40 -64 -27 -64 21 -63 108 2 110 6 0
12 -4 12 -9z m-93 -86 c26 -18 38 -62 22 -81 -13 -16 -62 -19 -89 -4 -27 14
-35 58 -14 81 21 23 52 24 81 4z m-247 -125 c0 -5 -7 -10 -16 -10 -29 0 -8
-25 22 -26 38 0 54 -10 54 -33 0 -26 -25 -44 -50 -36 -23 7 -17 27 8 23 9 -2
18 4 20 13 2 13 -5 16 -34 15 -43 -1 -66 23 -45 48 15 18 41 22 41 6z m-80
-100 c33 -17 60 -35 60 -40 0 -13 -17 -13 -25 0 -8 13 -16 12 -39 -5 -15 -11
-17 -17 -7 -29 8 -10 9 -16 2 -21 -6 -3 -16 7 -22 22 -6 15 -17 43 -25 61 -22
52 -23 52 56 12z"/>
<path d="M1824 416 c-10 -26 15 -56 46 -56 37 0 46 15 26 45 -18 28 -63 34
-72 11z"/>
<path d="M1854 763 c5 -9 0 -13 -14 -13 -12 0 -18 -5 -15 -10 3 -6 -3 -22 -14
-36 -12 -15 -21 -23 -21 -19 0 14 -31 -18 -46 -48 -11 -20 -12 -27 -3 -21 9 5
11 2 6 -9 -3 -9 4 -26 18 -41 21 -23 27 -24 54 -15 17 6 31 15 31 19 0 4 11
11 25 14 14 4 23 11 20 15 -3 5 5 7 17 3 14 -3 19 -2 14 6 -4 8 3 16 19 22 21
8 24 13 16 29 -6 10 -8 21 -5 23 2 3 -2 11 -11 18 -9 7 -15 8 -15 2 0 -6 -3
-17 -6 -26 -4 -11 -1 -16 10 -16 32 0 15 -18 -24 -25 -46 -8 -60 -2 -60 26 0
11 -4 18 -9 15 -5 -3 -12 1 -15 10 -4 10 -2 13 6 8 7 -4 8 -3 4 4 -3 6 2 16
13 21 16 9 21 7 27 -12 13 -43 43 -39 44 7 0 13 -5 16 -16 12 -14 -5 -15 -4
-4 9 10 13 9 15 -7 15 -10 0 -25 6 -32 13 -11 10 -13 10 -7 0z m-14 -153 l24
-13 -24 -10 c-14 -5 -35 -11 -47 -12 -17 -3 -21 1 -18 23 2 15 -2 30 -9 35 -8
5 -7 10 4 17 11 7 19 4 30 -9 8 -10 26 -24 40 -31z"/>
<path d="M2031 756 c-8 -10 -9 -16 -1 -21 13 -8 30 3 30 21 0 18 -14 18 -29 0z"/>
<path d="M1630 584 c0 -3 13 -24 29 -47 15 -23 26 -49 23 -57 -4 -11 -2 -11
11 2 19 18 22 38 7 38 -5 0 -9 3 -8 8 3 9 -43 62 -54 62 -4 0 -8 -3 -8 -6z"/>
<path d="M2590 304 c-223 -150 -418 -280 -435 -288 -22 -10 -25 -15 -12 -15
11 -1 31 8 45 20 15 11 56 40 92 63 36 23 103 68 149 99 46 31 85 57 88 57 2
0 19 11 37 25 18 14 36 25 39 25 4 0 50 31 104 68 54 38 103 71 109 73 34 13
194 125 194 136 0 7 -1 12 -2 12 -2 -1 -185 -124 -408 -275z"/>
<path d="M1592 558 c-7 -7 -12 -8 -12 -3 0 4 -9 0 -20 -10 -15 -13 -17 -22 -9
-36 5 -11 16 -19 23 -19 7 0 16 -13 19 -28 3 -16 12 -29 21 -29 8 0 12 5 9 11
-4 6 -17 28 -31 49 -24 41 -23 59 3 37 8 -7 22 -10 30 -6 13 4 14 10 5 26 -12
23 -21 25 -38 8z"/>
<path d="M2157 544 c-4 -4 -7 -13 -7 -21 0 -9 10 -11 38 -7 41 6 68 24 37 24
-11 0 -29 3 -40 6 -11 3 -24 2 -28 -2z"/>
<path d="M1633 508 c-10 -13 -10 -45 1 -55 6 -6 36 16 36 26 0 4 -6 15 -13 25
-11 15 -15 15 -24 4z"/>
<path d="M1468 493 c-6 -7 -13 -11 -16 -8 -9 8 -43 -38 -38 -52 3 -7 0 -13 -7
-13 -9 0 -8 -3 1 -9 11 -7 11 -9 -1 -14 -8 -3 -18 -2 -23 3 -12 10 -61 25 -52
15 5 -5 -2 -13 -15 -19 -20 -11 -31 -44 -17 -56 3 -3 11 -16 19 -30 13 -22 12
-24 -1 -13 -8 7 -17 10 -21 7 -3 -3 -8 4 -12 15 -11 35 -57 23 -71 -19 -13
-39 -25 -46 -53 -30 -26 13 -27 6 -3 -18 9 -9 24 -29 33 -42 15 -22 18 -23 34
-10 14 12 16 25 12 67 l-6 52 25 -15 c27 -18 32 -29 9 -20 -9 3 -15 0 -15 -10
0 -12 4 -13 21 -4 15 9 24 8 35 -1 11 -9 17 -9 28 0 11 9 15 9 18 -1 3 -8 6
-9 11 -1 4 6 -7 30 -24 53 -30 41 -31 44 -13 57 10 7 23 13 29 13 16 0 35 -21
35 -38 0 -8 8 -21 18 -28 21 -17 0 -19 -30 -3 -18 10 -19 8 -13 -13 10 -31 10
-31 35 -23 12 4 23 18 26 35 5 21 11 26 25 23 25 -7 79 33 76 56 -5 35 -36 71
-55 64 -15 -6 -15 -5 -3 10 7 9 20 17 27 17 8 0 14 4 14 8 0 14 -29 10 -42 -5z
m7 -61 c11 -9 26 -25 34 -35 13 -17 12 -18 -12 -12 -22 6 -28 3 -35 -14 -6
-18 -10 -14 -18 28 -12 56 -4 63 31 33z"/>
<path d="M1335 360 c-8 -12 20 -24 35 -15 6 3 8 11 5 16 -8 12 -32 12 -40 -1z"/>
<path d="M1267 253 c-4 -3 -7 -15 -7 -25 0 -10 -5 -18 -11 -18 -5 0 -7 -5 -4
-10 4 -7 13 -4 23 8 10 10 26 22 37 26 16 6 17 9 5 16 -18 11 -34 13 -43 3z"/>
<path d="M1090 245 c1 -5 7 -18 14 -28 12 -15 18 -16 35 -8 12 7 18 17 15 26
-7 18 -30 20 -40 4 -4 -8 -9 -7 -15 2 -5 8 -9 10 -9 4z"/>
<path d="M1076 211 c-4 -6 -22 -11 -39 -11 -42 0 -56 -10 -62 -45 -4 -20 1
-37 13 -51 19 -22 54 -44 71 -44 16 0 56 43 56 60 0 10 8 14 26 12 17 -2 29 3
33 13 3 10 13 15 20 12 8 -3 17 1 20 10 4 10 2 13 -7 10 -7 -3 -19 4 -26 15
-12 19 -13 19 -32 2 -13 -12 -16 -21 -9 -28 13 -13 13 -26 1 -26 -5 0 -12 8
-15 18 -11 31 -43 66 -50 53z m-7 -62 c22 -29 23 -31 6 -49 -24 -27 -30 -26
-62 16 -26 35 -26 37 -8 50 27 20 37 17 64 -17z"/>
<path d="M0 186 c0 -9 11 -29 25 -44 14 -15 37 -46 52 -69 15 -24 31 -43 36
-43 5 0 -7 21 -26 48 -19 26 -46 65 -61 86 -16 23 -26 32 -26 22z"/>
</g>
</svg>
